PathFileType	4	(X/Y/Z)	D:\Share\Shared_Data\Ergonomics\Sit To Stand Pertubation\S2\S2 Cal 01.trc
DataRate	CameraRate	NumFrames	NumMarkers	Units	OrigDataRate	OrigDataStartFrame	OrigNumFrames	
100	100	9	21	mm	100	181	206
Frame#	Time	R_ASIS			R_Pelvis			V_Sacral			L_Pelvis			L_ASIS			Clavical			R_Acromium			L_Acromium			Sternum			Torso			R_Thigh_Med			R_Thigh_Lat			R_Thigh			R_Shank_Med			R_Shank_Lat			R_Shank			R_Heel			R_Toe			RAJC			RHJC			RKJC			
		X1	Y1	Z1	X2	Y2	Z2	X3	Y3	Z3	X4	Y4	Z4	X5	Y5	Z5	X6	Y6	Z6	X7	Y7	Z7	X8	Y8	Z8	X9	Y9	Z9	X10	Y10	Z10	X11	Y11	Z11	X12	Y12	Z12	X13	Y13	Z13	X14	Y14	Z14	X15	Y15	Z15	X16	Y16	Z16	X17	Y17	Z17	X18	Y18	Z18	X19	Y19	Z19	X20	Y20	Z20	X21	Y21	Z21	

181	1.8	426.83414	1026.1206	127.50104	352.76944	1029.4838	168.21071	219.33984	1040.3894	-3.0148826	333.63943	1041.4016	-174.01332	419.74075	1037.5804	-137.68024	412.26999	1449.9154	-7.6886172	308.54971	1475.1075	198.73637	305.13959	1485.2356	-196.21091	456.13971	1289.2725	-12.727801	422.94714	1411.9803	-122.52809	340.83664	494.57455	62.978127	335.27924	516.55157	152.21474	430.57779	673.92462	127.85396	304.75192	106.36407	69.102524	283.38135	100.67984	160.38976	302.56824	372.02902	183.41536	204.56061	60.495728	111.46854	441.85358	64.572548	108.81828	294.066635	103.521955	114.746142	363.1805752	939.7746254	87.58444257	338.05794	505.56306	107.5964335
182	1.81	426.94836	1026.1125	127.53673	352.81546	1029.4789	168.21907	219.41968	1040.3992	-3.0291812	333.71555	1041.4021	-174.01001	419.8421	1037.5613	-137.6606	412.38324	1449.934	-7.6079392	308.65234	1475.1213	198.827	305.31818	1485.2933	-196.14168	456.17633	1289.3027	-12.647869	423.10275	1411.9985	-122.45321	340.89621	494.58499	62.991089	335.28711	516.55615	152.22789	430.62332	673.91754	127.87486	304.75693	106.37012	69.099831	283.38217	100.68326	160.3761	302.59317	372.02713	183.42125	204.56602	60.500874	111.46959	441.85422	64.573425	108.82362	294.06955	103.52669	114.7379655	363.2772321	939.766508	87.62471404	338.09166	505.57057	107.6094895
183	1.82	427.04181	1026.1183	127.55943	352.85721	1029.4792	168.24503	219.50128	1040.4081	-3.0137446	333.83032	1041.4052	-173.98988	419.92761	1037.5505	-137.62764	412.5228	1449.9343	-7.5392356	308.75586	1475.1302	198.91222	305.47116	1485.3397	-196.04814	456.28275	1289.311	-12.577236	423.25644	1412.0251	-122.38288	340.97272	494.59283	63.001751	335.29807	516.55377	152.241	430.64691	673.91132	127.88951	304.74606	106.36008	69.109161	283.36612	100.68083	160.37714	302.60971	372.0304	183.42677	204.57709	60.506813	111.48323	441.86349	64.573761	108.828	294.05609	103.520455	114.7431505	363.3632809	939.7762124	87.65691181	338.135395	505.5733	107.6213755
184	1.83	427.17932	1026.1273	127.59177	352.9313	1029.4778	168.25905	219.58102	1040.4078	-3.0128026	334.00717	1041.4231	-173.93994	420.0285	1037.5299	-137.6163	412.64154	1449.9478	-7.4708519	308.86636	1475.1311	198.96733	305.61725	1485.3762	-196.01396	456.41315	1289.3156	-12.522095	423.41266	1412.0486	-122.30803	340.99905	494.5975	63.00687	335.34052	516.53931	152.24487	430.68979	673.90466	127.91282	304.75058	106.36904	69.115273	283.37253	100.68659	160.38675	302.6218	372.03503	183.43207	204.56424	60.494553	111.47417	441.85147	64.563957	108.81488	294.061555	103.527815	114.7510115	363.4848708	939.7754574	87.70437871	338.169785	505.568405	107.62587
185	1.84	427.28986	1026.1302	127.63358	353.01822	1029.4744	168.30426	219.65152	1040.405	-3.00788	334.08469	1041.4194	-173.95567	420.14301	1037.5249	-137.60587	412.7554	1449.9663	-7.397737	308.96228	1475.1741	199.08232	305.73013	1485.4021	-195.9362	456.55634	1289.3063	-12.465652	423.56009	1412.0792	-122.23232	341.03204	494.59845	63.013069	335.36722	516.54199	152.25458	430.73688	673.89301	127.93056	304.76276	106.36877	69.107521	283.37747	100.68575	160.3846	302.65201	372.02441	183.43272	204.58258	60.497627	111.46564	441.8613	64.568916	108.82568	294.070115	103.52726	114.7460605	363.5874602	939.7670347	87.74258762	338.19963	505.57022	107.6338245
186	1.85	427.34192	1026.1265	127.65145	353.11212	1029.4779	168.28685	219.71706	1040.401	-3.0345483	334.22406	1041.4266	-173.9023	420.27209	1037.4858	-137.59819	412.87347	1449.9823	-7.32406	309.06943	1475.1777	199.09415	305.86084	1485.4272	-195.83037	456.67441	1289.3297	-12.431779	423.69275	1412.1073	-122.16129	341.05743	494.5965	63.022301	335.40039	516.54163	152.25613	430.78192	673.88361	127.94359	304.74078	106.36771	69.111008	283.37933	100.68468	160.37843	302.67908	372.02203	183.44209	204.56905	60.511295	111.46017	441.87466	64.577972	108.82984	294.060055	103.526195	114.744719	363.6376385	939.7614818	87.75292482	338.22891	505.569065	107.6392155
187	1.86	427.46509	1026.1135	127.66492	353.15585	1029.4713	168.28194	219.79985	1040.3915	-3.0250938	334.35117	1041.442	-173.88731	420.38101	1037.4968	-137.57526	412.98914	1449.9978	-7.2536039	309.17575	1475.1884	199.12772	306.005	1485.4263	-195.75737	456.79858	1289.3433	-12.375134	423.83987	1412.1267	-122.09998	341.1142	494.59845	63.028358	335.44019	516.53833	152.26283	430.84271	673.86591	127.98664	304.74661	106.35874	69.107536	283.37576	100.69305	160.34964	302.71048	372.03003	183.44574	204.58064	60.506962	111.46606	441.87192	64.567688	108.8322	294.061185	103.525895	114.728588	363.7554708	939.7515761	87.76337107	338.277195	505.56839	107.645594
188	1.87	427.52319	1026.0968	127.6822	353.23108	1029.46	168.30423	219.87126	1040.3818	-2.997854	334.45758	1041.4423	-173.87466	420.4744	1037.4996	-137.55777	413.14948	1450.0103	-7.1966338	309.29718	1475.2065	199.24522	306.1463	1485.4872	-195.70422	456.93295	1289.3673	-12.31523	423.98236	1412.1323	-122.05633	341.10632	494.58615	63.028187	335.4718	516.52893	152.26544	430.89969	673.85669	128.00439	304.76843	106.36827	69.083809	283.38638	100.68388	160.38715	302.72491	372.02841	183.45354	204.5854	60.508575	111.45737	441.87274	64.561554	108.82319	294.077405	103.526075	114.7354795	363.8183934	939.737561	87.76587873	338.28906	505.55754	107.6468135
189	1.88	427.57208	1026.0834	127.70107	353.33163	1029.4574	168.30089	219.94714	1040.4015	-3.0234566	334.54123	1041.4415	-173.86557	420.57327	1037.4989	-137.5491	413.28906	1450.0125	-7.126977	309.40231	1475.2158	199.31203	306.30853	1485.5228	-195.62781	457.08606	1289.3651	-12.265419	424.13092	1412.1613	-121.99772	341.20419	494.60202	63.035496	335.5105	516.52039	152.27585	430.95291	673.86682	127.99091	304.7522	106.35886	69.097092	283.3963	100.68905	160.36917	302.75433	372.02768	183.44179	204.57748	60.523308	111.46183	441.87048	64.557335	108.83827	294.07425	103.523955	114.733131	363.8634204	939.7314724	87.76761712	338.357345	505.561205	107.655673
